<?xml version="1.0" standalone="no"?>
<!DOCTYPE svg PUBLIC "-//W3C//DTD SVG 20010904//EN"
 "http://www.w3.org/TR/2001/REC-SVG-20010904/DTD/svg10.dtd">
<svg version="1.0" xmlns="http://www.w3.org/2000/svg"
 width="167.000000pt" height="258.000000pt" viewBox="0 0 167.000000 258.000000"
 preserveAspectRatio="xMidYMid meet">

<g transform="translate(0.000000,258.000000) scale(0.100000,-0.100000)"
fill="#000000" stroke="none">
<path fill="#4caf50" d="M545 1449 c-159 -77 -293 -143 -297 -147 -4 -4 130 -74 298 -155
l306 -146 308 147 c170 81 305 150 302 153 -16 15 -599 289 -612 288 -8 0
-145 -63 -305 -140z m323 -145 c1 -126 0 -234 -3 -242 -3 -10 -14 -8 -45 8
l-40 20 0 208 0 208 33 17 c17 8 37 14 42 13 6 -2 11 -90 13 -232z m87 189
l35 -17 0 -178 0 -178 -40 -20 c-21 -11 -42 -20 -45 -20 -3 0 -5 97 -5 215 0
132 4 215 10 215 5 0 25 -8 45 -17z m-219 -381 c-3 -2 -20 4 -38 15 l-33 19
-3 152 -3 151 38 20 38 19 3 -185 c1 -102 0 -188 -2 -191z m374 184 l0 -123
-40 -16 -40 -15 0 159 0 159 40 -20 40 -20 0 -124z m-480 4 c0 -76 -4 -130
-10 -130 -5 0 -21 5 -35 12 -24 11 -25 14 -25 114 0 102 0 103 28 118 15 8 30
15 35 16 4 0 7 -58 7 -130z m610 -2 c0 -57 0 -58 -40 -78 -21 -11 -42 -20 -45
-20 -3 0 -5 45 -5 100 l0 100 45 -22 45 -22 0 -58z m-720 1 c0 -79 0 -80 -22
-73 -39 11 -48 25 -48 75 0 42 3 50 28 63 15 8 30 15 35 16 4 0 7 -36 7 -81z
m827 -2 c-1 -5 -17 -15 -35 -23 l-32 -13 0 39 0 40 35 -17 c20 -9 34 -21 32
-26z m-927 3 c0 -33 -12 -37 -49 -16 l-24 14 29 15 c40 22 44 21 44 -13z"/>
</g>
</svg>
