<?xml version="1.0" standalone="no"?>
<!DOCTYPE svg PUBLIC "-//W3C//DTD SVG 20010904//EN"
 "http://www.w3.org/TR/2001/REC-SVG-20010904/DTD/svg10.dtd">
<svg version="1.0" xmlns="http://www.w3.org/2000/svg"
 width="167.000000pt" height="258.000000pt" viewBox="0 0 167.000000 258.000000"
 preserveAspectRatio="xMidYMid meet">

<g transform="translate(0.000000,258.000000) scale(0.100000,-0.100000)"
fill="#000000" stroke="none">
<path fill="#f44336" d="M521 1807 l-313 -152 138 -67 c77 -37 221 -106 322 -154 l182 -87
183 87 c100 48 244 117 321 154 l138 67 -318 153 c-176 84 -323 152 -329 151
-5 0 -151 -69 -324 -152z m565 -32 c132 -63 238 -118 237 -122 -1 -4 -107 -57
-237 -119 l-236 -113 -177 86 c-98 47 -207 99 -243 115 l-65 31 240 118 c132
64 241 118 241 118 1 1 109 -51 240 -114z"/>
<path fill="#f44336" d="M528 1097 c-174 -84 -313 -155 -310 -158 14 -13 619 -299 633 -299
13 0 617 286 631 299 5 5 -598 300 -629 308 -4 1 -151 -67 -325 -150z m567
-39 c129 -61 232 -114 230 -118 -2 -3 -109 -57 -239 -119 l-235 -113 -233 112
c-128 61 -236 115 -241 119 -7 7 447 230 471 231 8 0 119 -50 247 -112z"/>
</g>
</svg>
