<?xml version="1.0" standalone="no"?>
<!DOCTYPE svg PUBLIC "-//W3C//DTD SVG 20010904//EN"
 "http://www.w3.org/TR/2001/REC-SVG-20010904/DTD/svg10.dtd">
<svg version="1.0" xmlns="http://www.w3.org/2000/svg"
 width="167.000000pt" height="258.000000pt" viewBox="0 0 167.000000 258.000000"
 preserveAspectRatio="xMidYMid meet">

<g transform="translate(0.000000,258.000000) scale(0.100000,-0.100000)"
fill="#000000" stroke="none">
<path fill="#4caf50" d="M528 1452 c-169 -81 -307 -150 -308 -153 0 -3 142 -74 316 -157 l317
-152 318 152 c175 84 315 156 311 160 -15 14 -616 298 -631 298 -9 -1 -154
-67 -323 -148z m564 -34 c130 -62 237 -116 238 -119 0 -10 -467 -231 -483
-227 -35 7 -476 223 -469 230 7 6 462 226 472 228 3 0 112 -50 242 -112z"/>
</g>
</svg>
