<?xml version="1.0" standalone="no"?>
<!DOCTYPE svg PUBLIC "-//W3C//DTD SVG 20010904//EN"
 "http://www.w3.org/TR/2001/REC-SVG-20010904/DTD/svg10.dtd">
<svg version="1.0" xmlns="http://www.w3.org/2000/svg"
 width="167.000000pt" height="258.000000pt" viewBox="0 0 167.000000 258.000000"
 preserveAspectRatio="xMidYMid meet">

<g transform="translate(0.000000,258.000000) scale(0.100000,-0.100000)"
fill="#000000" stroke="none">
<path fill="#4caf50" d="M443 1920 c-130 -65 -189 -196 -149 -332 21 -72 87 -147 158 -179 53
-24 56 -24 398 -24 342 0 345 0 398 24 108 49 182 172 169 284 -13 102 -67
180 -161 230 -40 21 -52 22 -396 25 l-355 3 -62 -31z m782 -57 c121 -65 159
-192 93 -303 -26 -42 -45 -61 -87 -82 l-53 -28 -328 0 -328 0 -53 28 c-76 39
-112 94 -117 176 -3 46 0 72 13 97 33 66 90 112 160 130 17 4 172 7 345 6 302
-2 317 -3 355 -24z"/>
<path fill="#4caf50" d="M443 1180 c-130 -65 -189 -196 -149 -332 21 -72 87 -147 158 -179 53
-24 56 -24 398 -24 342 0 345 0 398 24 108 49 182 172 169 284 -13 102 -67
180 -161 230 -40 21 -52 22 -396 25 l-355 3 -62 -31z m782 -57 c121 -65 159
-192 92 -303 -25 -42 -44 -61 -86 -82 l-53 -28 -328 0 -328 0 -53 28 c-76 39
-112 94 -117 176 -3 46 0 72 13 97 32 63 85 108 155 130 14 4 169 7 345 6 307
-2 322 -3 360 -24z"/>
</g>
</svg>
