<?xml version="1.0" standalone="no"?>
<!DOCTYPE svg PUBLIC "-//W3C//DTD SVG 20010904//EN"
 "http://www.w3.org/TR/2001/REC-SVG-20010904/DTD/svg10.dtd">
<svg version="1.0" xmlns="http://www.w3.org/2000/svg"
 width="167.000000pt" height="258.000000pt" viewBox="0 0 167.000000 258.000000"
 preserveAspectRatio="xMidYMid meet">

<g transform="translate(0.000000,258.000000) scale(0.100000,-0.100000)"
fill="#000000" stroke="none">
<path fill="#673ab7" d="M479 1566 c-91 -32 -146 -86 -180 -176 -40 -106 -16 -207 70 -291 89
-87 113 -91 506 -87 312 3 321 4 373 27 184 83 226 320 82 460 -79 77 -104 81
-483 81 -245 -1 -341 -4 -368 -14z m750 -76 c80 -40 125 -121 119 -212 -6 -76
-44 -132 -117 -170 l-53 -28 -327 0 -327 0 -55 28 c-71 36 -111 92 -117 166
-10 117 61 211 178 237 19 5 176 6 348 4 285 -5 316 -7 351 -25z"/>
</g>
</svg>
