<?xml version="1.0" standalone="no"?>
<!DOCTYPE svg PUBLIC "-//W3C//DTD SVG 20010904//EN"
 "http://www.w3.org/TR/2001/REC-SVG-20010904/DTD/svg10.dtd">
<svg version="1.0" xmlns="http://www.w3.org/2000/svg"
 width="167.000000pt" height="258.000000pt" viewBox="0 0 167.000000 258.000000"
 preserveAspectRatio="xMidYMid meet">

<g transform="translate(0.000000,258.000000) scale(0.100000,-0.100000)"
fill="#000000" stroke="none">
<path fill="#f44336" d="M498 1566 c-131 -35 -218 -160 -205 -292 10 -96 61 -170 148 -213
l62 -31 346 0 c342 0 347 0 396 24 157 73 209 256 114 399 -36 55 -92 93 -166
112 -76 20 -623 20 -695 1z m140 -263 l-3 -228 -42 -3 -43 -3 0 230 0 231 45
0 45 0 -2 -227z m122 -4 l0 -230 -42 3 -43 3 -3 228 -2 227 45 0 45 0 0 -231z
m120 1 l0 -230 -40 0 -40 0 0 230 0 230 40 0 40 0 0 -230z m120 0 l0 -230 -40
0 -40 0 0 230 0 230 40 0 40 0 0 -230z m130 0 l0 -230 -45 0 -45 0 0 230 0
230 45 0 45 0 0 -230z m-620 0 c0 -121 -3 -220 -7 -220 -5 0 -23 9 -40 20
l-33 20 0 183 0 183 33 17 c17 8 35 16 40 16 4 1 7 -98 7 -219z m715 208 l25
-11 0 -198 0 -197 -31 -11 c-18 -6 -36 -11 -40 -11 -5 0 -9 99 -9 220 0 239
-1 234 55 208z m110 -108 c32 -64 33 -128 1 -196 -42 -89 -46 -80 -46 96 0
107 3 159 10 155 6 -4 22 -28 35 -55z m-945 -102 l0 -143 -22 34 c-33 52 -37
146 -8 206 12 25 24 45 26 45 2 0 4 -64 4 -142z"/>
</g>
</svg>
