<?xml version="1.0" standalone="no"?>
<!DOCTYPE svg PUBLIC "-//W3C//DTD SVG 20010904//EN"
 "http://www.w3.org/TR/2001/REC-SVG-20010904/DTD/svg10.dtd">
<svg version="1.0" xmlns="http://www.w3.org/2000/svg"
 width="167.000000pt" height="258.000000pt" viewBox="0 0 167.000000 258.000000"
 preserveAspectRatio="xMidYMid meet">

<g transform="translate(0.000000,258.000000) scale(0.100000,-0.100000)"
fill="#000000" stroke="none">
<path fill="#4caf50" d="M507 2319 c-62 -15 -112 -45 -155 -94 -128 -146 -78 -364 103 -447
48 -22 61 -23 373 -26 276 -3 331 -1 379 13 137 40 213 139 213 279 0 111 -63
205 -170 255 l-55 26 -325 2 c-179 1 -342 -3 -363 -8z m713 -80 c88 -40 134
-108 134 -199 0 -95 -64 -182 -153 -209 -25 -7 -148 -11 -359 -11 l-320 0 -53
28 c-33 17 -65 44 -83 70 -61 87 -42 226 40 288 66 51 85 53 429 53 301 1 323
-1 365 -20z"/>
<path fill="#4caf50" d="M477 1566 c-171 -61 -246 -251 -161 -407 33 -60 95 -111 164 -134 41
-14 97 -16 392 -13 l343 3 51 27 c98 51 145 127 152 240 4 69 2 84 -22 132
-33 67 -100 129 -163 150 -64 22 -696 23 -756 2z m701 -56 c167 -39 235 -229
125 -351 -72 -79 -69 -79 -448 -79 -365 0 -379 2 -438 58 -45 42 -67 94 -67
157 0 104 70 190 175 216 46 11 604 10 653 -1z"/>
<path fill="#4caf50" d="M505 831 c-60 -16 -86 -32 -135 -77 -118 -110 -120 -285 -6 -399 87
-87 101 -90 496 -90 331 0 336 0 387 24 64 29 134 101 157 163 23 59 18 166
-9 223 -26 53 -87 112 -144 139 -44 20 -61 21 -381 23 -184 1 -348 -2 -365 -6z
m722 -82 c163 -79 173 -288 19 -384 l-49 -30 -311 -3 c-171 -2 -330 -1 -352 3
-53 8 -121 53 -154 101 -21 32 -25 49 -25 115 0 70 3 82 30 121 20 28 49 52
84 71 l55 27 330 0 c314 0 332 -1 373 -21z"/>
</g>
</svg>
