<?xml version="1.0" standalone="no"?>
<!DOCTYPE svg PUBLIC "-//W3C//DTD SVG 20010904//EN"
 "http://www.w3.org/TR/2001/REC-SVG-20010904/DTD/svg10.dtd">
<svg version="1.0" xmlns="http://www.w3.org/2000/svg"
 width="167.000000pt" height="258.000000pt" viewBox="0 0 167.000000 258.000000"
 preserveAspectRatio="xMidYMid meet">

<g transform="translate(0.000000,258.000000) scale(0.100000,-0.100000)"
fill="#000000" stroke="none">
<path fill="#673ab7" d="M1190 1485 c-84 -50 -160 -70 -223 -60 -23 4 -81 22 -129 41 -142 55
-235 68 -319 42 -123 -36 -209 -208 -179 -353 24 -117 89 -147 187 -86 113 70
205 77 343 26 143 -54 301 -35 392 44 110 98 150 289 76 369 -31 32 -64 27
-148 -23z"/>
</g>
</svg>
