<?xml version="1.0" standalone="no"?>
<!DOCTYPE svg PUBLIC "-//W3C//DTD SVG 20010904//EN"
 "http://www.w3.org/TR/2001/REC-SVG-20010904/DTD/svg10.dtd">
<svg version="1.0" xmlns="http://www.w3.org/2000/svg"
 width="167.000000pt" height="258.000000pt" viewBox="0 0 167.000000 258.000000"
 preserveAspectRatio="xMidYMid meet">

<g transform="translate(0.000000,258.000000) scale(0.100000,-0.100000)"
fill="#000000" stroke="none">
<path fill="#f44336" d="M1205 1819 c-132 -84 -214 -93 -354 -39 -179 69 -280 79 -370 34 -97
-49 -158 -169 -149 -295 5 -84 31 -137 75 -156 34 -13 37 -12 138 38 92 46
110 52 167 52 41 0 76 -7 97 -18 64 -33 135 -48 221 -48 114 0 181 26 245 94
59 63 87 126 92 209 4 54 0 73 -19 110 -31 60 -70 65 -143 19z"/>
<path fill="#f44336" d="M1223 1168 c-139 -75 -133 -73 -228 -72 -78 0 -100 5 -163 32 -205
88 -354 72 -442 -50 -77 -106 -80 -278 -8 -355 31 -33 76 -30 145 12 65 39
140 65 190 65 18 0 67 -14 110 -31 64 -26 96 -33 178 -36 86 -4 108 -2 159 17
75 29 134 83 172 157 25 50 29 70 29 140 0 67 -4 87 -20 109 -34 45 -57 47
-122 12z"/>
</g>
</svg>
