<?xml version="1.0" standalone="no"?>
<!DOCTYPE svg PUBLIC "-//W3C//DTD SVG 20010904//EN"
 "http://www.w3.org/TR/2001/REC-SVG-20010904/DTD/svg10.dtd">
<svg version="1.0" xmlns="http://www.w3.org/2000/svg"
 width="167.000000pt" height="258.000000pt" viewBox="0 0 167.000000 258.000000"
 preserveAspectRatio="xMidYMid meet">

<g transform="translate(0.000000,258.000000) scale(0.100000,-0.100000)"
fill="#000000" stroke="none">
<path fill="#4caf50" d="M1181 1835 c-122 -73 -203 -78 -340 -20 -242 101 -416 61 -494 -114
-26 -58 -34 -175 -17 -237 18 -63 61 -104 109 -104 20 0 46 6 57 14 52 37 146
76 195 82 47 5 65 1 134 -27 75 -32 87 -34 200 -34 111 0 124 2 177 28 105 52
181 174 181 296 1 67 -10 99 -46 139 -31 34 -72 28 -156 -23z m-542 -11 l31
-6 0 -158 0 -157 -39 -11 c-21 -7 -41 -12 -45 -12 -8 0 -8 335 1 343 8 9 13 9
52 1z m687 -29 c18 -44 18 -88 -1 -153 -26 -88 -35 -72 -35 62 0 132 9 155 36
91z m-778 -155 l-3 -180 -43 -26 -42 -25 2 188 3 188 35 17 c19 10 38 18 43
18 4 0 6 -81 5 -180z m691 -137 c-7 -8 -21 -19 -31 -24 -17 -9 -18 -2 -18 148
l0 158 28 17 27 17 3 -151 c2 -105 -1 -155 -9 -165z m-473 291 c24 -6 24 -6
24 -150 l0 -144 -24 0 c-56 0 -56 0 -56 162 0 133 2 149 16 144 9 -3 27 -9 40
-12z m140 -54 c2 0 4 -65 4 -145 0 -80 -2 -145 -5 -145 -3 0 -21 7 -40 14
l-35 15 0 146 0 145 36 -15 c20 -8 38 -15 40 -15z m244 -134 c0 -168 1 -166
-61 -166 l-30 0 3 147 3 146 35 13 c19 7 38 13 43 13 4 1 7 -68 7 -153z m-720
-37 c0 -173 -5 -186 -45 -118 -28 49 -26 156 4 227 13 28 27 52 32 52 5 0 9
-72 9 -161z m590 10 l0 -151 -22 6 c-13 3 -29 6 -35 6 -10 0 -13 36 -13 145
l0 145 35 0 35 0 0 -151z"/>
<path fill="#4caf50" d="M1258 1230 c-15 -4 -40 -18 -57 -29 -16 -12 -53 -32 -83 -46 -82 -38
-153 -35 -283 15 -123 47 -217 63 -286 50 -66 -13 -98 -31 -146 -83 -104 -113
-113 -330 -17 -406 36 -28 87 -24 135 10 51 36 140 69 191 69 30 0 74 -11 125
-32 71 -30 87 -32 188 -33 104 0 114 2 176 32 95 47 154 129 178 244 19 91 -9
182 -65 207 -14 7 -26 12 -27 11 -1 0 -14 -4 -29 -9z m68 -86 c18 -43 18 -88
-1 -152 -27 -88 -35 -72 -35 68 0 137 7 153 36 84z m-672 30 c14 -5 16 -29 16
-164 l0 -157 -27 -6 c-16 -3 -36 -9 -45 -12 -17 -7 -18 5 -18 169 l0 176 29 0
c16 0 36 -3 45 -6z m-104 -181 l0 -178 -35 -22 c-19 -13 -39 -23 -45 -23 -6 0
-10 65 -10 180 l0 180 33 20 c57 35 57 37 57 -157z m700 23 l0 -155 -30 -21
-30 -21 0 159 c0 154 1 160 23 175 12 9 25 16 30 16 4 1 7 -68 7 -153z m-491
133 l31 -11 0 -145 0 -145 -22 6 c-13 3 -31 6 -40 6 -16 0 -18 14 -18 150 0
83 4 150 9 150 4 0 22 -5 40 -11z m115 -44 l36 -15 0 -145 0 -144 -37 13 -38
13 -3 146 c-1 81 -1 147 2 147 2 0 20 -7 40 -15z m276 -149 c0 -151 0 -154
-22 -160 -13 -3 -33 -6 -45 -6 -23 0 -23 1 -23 148 l0 148 38 11 c20 6 40 11
45 12 4 0 7 -68 7 -153z m-720 -32 c0 -178 -5 -191 -45 -124 -24 42 -27 158
-6 210 16 37 41 80 47 80 2 0 4 -75 4 -166z m590 11 l0 -145 -35 0 -35 0 0
145 0 145 35 0 35 0 0 -145z"/>
</g>
</svg>
