<?xml version="1.0" standalone="no"?>
<!DOCTYPE svg PUBLIC "-//W3C//DTD SVG 20010904//EN"
 "http://www.w3.org/TR/2001/REC-SVG-20010904/DTD/svg10.dtd">
<svg version="1.0" xmlns="http://www.w3.org/2000/svg"
 width="167.000000pt" height="258.000000pt" viewBox="0 0 167.000000 258.000000"
 preserveAspectRatio="xMidYMid meet">

<g transform="translate(0.000000,258.000000) scale(0.100000,-0.100000)"
fill="#000000" stroke="none">
<path fill="#f44336" d="M1220 2190 c-133 -76 -154 -84 -225 -84 -59 -1 -88 6 -185 42 -189
72 -310 68 -395 -15 -125 -122 -126 -387 -1 -419 26 -6 33 -3 140 56 84 47
176 53 261 17 228 -95 435 -36 517 150 29 66 35 152 14 208 -26 68 -63 81
-126 45z"/>
<path fill="#f44336"  d="M1230 1531 c-19 -10 -61 -33 -94 -51 -84 -47 -165 -52 -266 -15 -213
76 -267 86 -354 61 -112 -33 -185 -135 -194 -272 -5 -86 14 -152 55 -184 38
-29 64 -25 159 26 118 64 177 69 289 23 74 -31 89 -33 190 -34 100 0 115 2
167 28 31 15 71 44 89 64 96 110 118 293 42 353 -32 25 -40 25 -83 1z"/>
<path fill="#f44336"  d="M1180 839 c-83 -51 -158 -73 -220 -65 -26 4 -96 25 -156 48 -230 87
-369 56 -446 -99 -30 -61 -33 -76 -33 -153 0 -102 20 -153 72 -178 33 -16 34
-15 133 36 91 47 107 52 166 52 46 0 81 -7 123 -25 170 -71 346 -51 445 51 80
83 116 219 82 309 -30 78 -70 83 -166 24z"/>
</g>
</svg>
