<?xml version="1.0" standalone="no"?>
<!DOCTYPE svg PUBLIC "-//W3C//DTD SVG 20010904//EN"
 "http://www.w3.org/TR/2001/REC-SVG-20010904/DTD/svg10.dtd">
<svg version="1.0" xmlns="http://www.w3.org/2000/svg"
 width="167.000000pt" height="258.000000pt" viewBox="0 0 167.000000 258.000000"
 preserveAspectRatio="xMidYMid meet">

<g transform="translate(0.000000,258.000000) scale(0.100000,-0.100000)"
fill="#000000" stroke="none">
<path fill="#4caf50" d="M1181 1505 c-128 -77 -186 -79 -366 -10 -133 50 -244 59 -323 25 -99
-43 -161 -140 -170 -267 -6 -90 11 -154 50 -194 42 -42 80 -39 181 16 116 63
167 67 272 25 149 -60 324 -52 423 20 94 67 154 213 133 319 -14 68 -51 111
-95 111 -19 0 -61 -18 -105 -45z m-542 -11 l31 -6 0 -158 0 -157 -39 -11 c-21
-7 -41 -12 -45 -12 -8 0 -8 335 1 343 8 9 13 9 52 1z m687 -29 c24 -58 14
-154 -21 -200 -13 -18 -14 -7 -15 108 0 133 9 156 36 92z m-776 -154 l0 -179
-34 -21 c-18 -12 -36 -21 -40 -21 -3 0 -6 83 -6 185 l0 186 33 14 c17 8 35 14
40 15 4 0 7 -81 7 -179z m689 -138 c-7 -8 -21 -19 -31 -24 -17 -9 -18 -2 -18
148 l0 158 28 17 27 17 3 -151 c2 -105 -1 -155 -9 -165z m-480 296 l31 -11 0
-144 c0 -157 1 -153 -57 -138 -23 6 -23 9 -23 155 0 82 4 149 9 149 4 0 22 -5
40 -11z m149 -202 c1 -81 0 -147 -3 -147 -3 0 -21 7 -40 14 l-35 15 0 145 0
145 38 -13 37 -13 3 -146z m242 9 c0 -168 1 -166 -61 -166 l-30 0 3 146 3 146
35 13 c19 7 38 13 43 14 4 0 7 -68 7 -153z m-720 -32 c0 -178 -5 -191 -45
-123 -30 52 -27 157 7 232 15 31 29 57 32 57 4 0 6 -75 6 -166z m590 5 c0
-134 -2 -150 -16 -145 -9 3 -24 6 -35 6 -18 0 -19 9 -19 145 l0 145 35 0 35 0
0 -151z"/>
</g>
</svg>
