<?xml version="1.0" standalone="no"?>
<!DOCTYPE svg PUBLIC "-//W3C//DTD SVG 20010904//EN"
 "http://www.w3.org/TR/2001/REC-SVG-20010904/DTD/svg10.dtd">
<svg version="1.0" xmlns="http://www.w3.org/2000/svg"
 width="167.000000pt" height="258.000000pt" viewBox="0 0 167.000000 258.000000"
 preserveAspectRatio="xMidYMid meet">

<g transform="translate(0.000000,258.000000) scale(0.100000,-0.100000)"
fill="#000000" stroke="none">
<path fill="#4caf50" d="M1180 1515 c-129 -77 -185 -79 -365 -10 -80 30 -118 39 -187 43 -76
4 -92 1 -140 -20 -107 -50 -168 -146 -176 -279 -5 -95 16 -167 59 -204 44 -36
80 -32 184 20 124 63 166 67 270 24 75 -32 87 -34 200 -34 105 0 127 3 172 24
133 59 221 229 193 368 -8 38 -21 66 -40 85 -42 41 -80 37 -170 -17z m148
-103 c10 -106 -56 -220 -155 -268 -50 -25 -68 -28 -143 -27 -61 0 -102 7 -145
22 -169 62 -213 61 -360 -14 l-90 -46 -26 29 c-32 36 -43 98 -29 170 26 137
105 205 235 205 58 -1 89 -8 180 -43 186 -71 282 -66 430 23 59 36 60 36 79
18 11 -12 21 -39 24 -69z"/>
</g>
</svg>
