<?xml version="1.0" standalone="no"?>
<!DOCTYPE svg PUBLIC "-//W3C//DTD SVG 20010904//EN"
 "http://www.w3.org/TR/2001/REC-SVG-20010904/DTD/svg10.dtd">
<svg version="1.0" xmlns="http://www.w3.org/2000/svg"
 width="167.000000pt" height="258.000000pt" viewBox="0 0 167.000000 258.000000"
 preserveAspectRatio="xMidYMid meet">

<g transform="translate(0.000000,258.000000) scale(0.100000,-0.100000)"
fill="#000000" stroke="none">
<path fill="#f44336" d="M1230 2207 c-14 -7 -43 -25 -65 -39 -101 -63 -181 -65 -332 -7 -245
94 -412 53 -491 -119 -19 -42 -27 -79 -30 -138 -4 -72 -1 -89 21 -137 27 -59
63 -87 112 -87 14 0 63 21 110 46 118 63 165 67 276 23 78 -31 92 -33 199 -34
106 0 119 2 172 28 169 83 252 328 151 448 -28 33 -78 39 -123 16z m86 -82
c42 -101 -18 -250 -125 -313 -43 -25 -54 -27 -161 -27 -105 0 -121 3 -185 30
-116 49 -214 38 -337 -37 -59 -36 -86 -33 -112 11 -48 82 -11 243 72 311 78
64 177 62 355 -7 162 -63 255 -56 396 28 36 22 69 39 73 39 5 0 16 -16 24 -35z"/>
<path fill="#f44336" d="M1219 1520 c-107 -60 -145 -74 -204 -78 -52 -3 -75 2 -169 38 -144
55 -241 69 -317 47 -74 -22 -117 -53 -156 -111 -80 -118 -85 -287 -12 -371 37
-42 85 -54 126 -32 144 78 166 87 221 87 37 0 78 -9 121 -26 292 -118 567 32
565 306 0 72 -18 116 -60 149 -35 28 -52 27 -115 -9z m97 -72 c34 -65 1 -191
-70 -266 -58 -63 -98 -77 -216 -77 -94 0 -112 3 -175 30 -57 25 -84 30 -147
30 -72 0 -82 -3 -171 -49 -53 -27 -102 -46 -111 -43 -51 20 -66 163 -26 254
64 149 191 178 413 94 59 -22 130 -44 160 -47 69 -8 156 16 239 67 35 21 69
39 75 39 7 0 20 -14 29 -32z"/>
<path fill="#f44336" d="M1220 875 c-174 -97 -205 -102 -335 -55 -199 71 -277 83 -371 55
-127 -38 -211 -174 -202 -328 4 -82 28 -140 71 -171 41 -30 84 -25 153 17 70
42 166 70 209 61 17 -3 55 -17 85 -29 121 -50 269 -52 376 -5 89 39 174 161
189 271 14 102 -38 209 -102 209 -15 0 -48 -11 -73 -25z m98 -75 c18 -35 10
-136 -17 -188 -83 -162 -250 -204 -468 -117 -106 43 -221 27 -334 -46 -29 -19
-55 -28 -66 -25 -35 11 -56 64 -56 137 0 91 44 186 106 227 37 25 48 27 136
26 86 -1 106 -5 189 -38 124 -49 182 -59 252 -45 54 11 146 52 185 83 27 22
57 16 73 -14z"/>
</g>
</svg>
