<?xml version="1.0" standalone="no"?>
<!DOCTYPE svg PUBLIC "-//W3C//DTD SVG 20010904//EN"
 "http://www.w3.org/TR/2001/REC-SVG-20010904/DTD/svg10.dtd">
<svg version="1.0" xmlns="http://www.w3.org/2000/svg"
 width="167.000000pt" height="258.000000pt" viewBox="0 0 167.000000 258.000000"
 preserveAspectRatio="xMidYMid meet">

<g transform="translate(0.000000,258.000000) scale(0.100000,-0.100000)"
fill="#000000" stroke="none">
<path fill="#673ab7" d="M565 2195 c-154 -74 -297 -143 -318 -153 l-39 -18 319 -152 c175 -84
322 -152 326 -152 10 0 618 290 630 300 6 6 -595 301 -626 307 -7 2 -138 -58
-292 -132z m724 -146 c26 -12 41 -23 35 -29 -5 -4 -113 -58 -240 -119 l-232
-111 -236 114 c-130 62 -239 115 -241 118 -3 2 104 57 237 120 l241 116 196
-95 c108 -52 216 -104 240 -114z"/>
<path fill="#673ab7" d="M725 1544 c-60 -30 -201 -98 -313 -152 l-202 -97 321 -154 322 -154
41 20 c22 11 166 80 319 153 153 73 274 136 270 140 -17 14 -623 300 -635 299
-7 0 -62 -25 -123 -55z m357 -125 c128 -61 237 -115 242 -120 6 -5 -17 -20
-55 -38 -35 -16 -143 -67 -240 -114 l-177 -85 -241 116 c-132 63 -239 117
-237 119 3 3 461 227 473 232 2 1 107 -49 235 -110z"/>
<path fill="#673ab7" d="M550 747 c-162 -78 -306 -147 -319 -152 -21 -10 12 -28 294 -163 174
-84 322 -152 328 -152 11 0 617 288 629 299 7 6 -617 312 -632 311 -3 -1 -138
-65 -300 -143z m779 -162 c3 -4 -399 -203 -456 -226 -18 -7 -68 13 -255 103
-128 61 -236 113 -241 117 -4 4 102 59 235 122 l242 116 235 -114 c129 -63
237 -116 240 -118z"/>
</g>
</svg>
