<?xml version="1.0" standalone="no"?>
<!DOCTYPE svg PUBLIC "-//W3C//DTD SVG 20010904//EN"
 "http://www.w3.org/TR/2001/REC-SVG-20010904/DTD/svg10.dtd">
<svg version="1.0" xmlns="http://www.w3.org/2000/svg"
 width="167.000000pt" height="258.000000pt" viewBox="0 0 167.000000 258.000000"
 preserveAspectRatio="xMidYMid meet">

<g transform="translate(0.000000,258.000000) scale(0.100000,-0.100000)"
fill="#000000" stroke="none">
<path fill="#4caf50" d="M575 1820 c-148 -71 -287 -138 -308 -147 l-38 -18 311 -149 310 -149
310 148 c170 82 309 150 307 151 -6 5 -613 294 -617 294 -3 0 -126 -59 -275
-130z m285 -165 c0 -135 -2 -245 -5 -245 -2 0 -20 8 -40 17 l-35 17 0 211 0
211 33 17 c17 8 35 16 40 16 4 1 7 -109 7 -244z m91 195 l39 -21 -2 -177 -3
-177 -35 -17 c-19 -9 -38 -17 -42 -18 -5 0 -8 97 -8 215 0 118 2 215 5 215 3
0 24 -9 46 -20z m-211 -195 c0 -123 -4 -185 -10 -185 -6 0 -24 7 -40 15 l-30
16 0 154 0 155 33 14 c17 8 35 15 40 15 4 1 7 -82 7 -184z m335 138 l35 -17 0
-121 0 -121 -35 -17 c-20 -9 -40 -17 -45 -17 -6 0 -10 62 -10 155 0 93 4 155
10 155 5 0 25 -8 45 -17z m-455 -138 l0 -135 -35 17 -35 17 0 98 0 98 33 20
c17 11 33 20 35 20 1 0 2 -61 2 -135z m581 75 l40 -21 -3 -57 c-3 -54 -5 -58
-38 -74 -19 -9 -38 -17 -42 -18 -5 0 -8 43 -8 95 0 52 2 95 5 95 3 0 24 -9 46
-20z m-681 -75 c0 -80 -7 -88 -51 -65 -15 9 -19 22 -19 64 0 45 3 55 23 64 43
21 47 16 47 -63z m-110 0 l0 -36 -30 16 c-16 9 -30 18 -30 20 0 4 49 33 58 35
1 0 2 -16 2 -35z m910 20 c17 -9 30 -18 30 -20 0 -6 -57 -35 -70 -35 -5 0 -10
16 -10 35 0 39 8 42 50 20z"/>
<path fill="#4caf50" d="M543 1093 c-167 -81 -303 -149 -303 -152 1 -7 581 -284 604 -289 15
-3 615 278 616 289 0 5 -576 286 -605 294 -5 2 -146 -62 -312 -142z m317 -153
c0 -161 -3 -240 -10 -240 -6 0 -24 7 -40 15 l-30 16 0 212 0 213 28 11 c54 22
52 31 52 -227z m90 200 l40 -20 0 -178 0 -178 -35 -17 c-20 -9 -40 -17 -45
-17 -6 0 -10 83 -10 215 0 118 2 215 5 215 3 0 24 -9 45 -20z m-210 -200 l0
-190 -40 20 -40 20 0 153 0 153 33 17 c17 8 35 16 40 16 4 1 7 -85 7 -189z
m330 140 l40 -20 0 -120 0 -120 -36 -15 c-20 -8 -40 -15 -45 -15 -5 0 -9 70
-9 155 0 85 2 155 5 155 3 0 24 -9 45 -20z m-450 -140 c0 -71 -2 -130 -5 -130
-4 0 -19 7 -35 15 l-30 16 0 99 c0 98 0 100 28 114 15 8 30 15 35 16 4 0 7
-58 7 -130z m580 80 c40 -20 40 -21 40 -78 l0 -58 -45 -22 -45 -22 0 100 c0
55 2 100 5 100 3 0 24 -9 45 -20z m-680 -80 c0 -44 -2 -80 -5 -80 -4 0 -19 7
-35 15 -28 14 -30 20 -30 69 0 45 3 55 23 64 44 21 47 17 47 -68z m795 23 c19
-9 35 -19 35 -23 0 -6 -59 -30 -73 -30 -4 0 -7 16 -7 35 0 19 2 35 5 35 2 0
20 -8 40 -17z m-905 -22 c0 -28 -1 -29 -30 -18 -36 14 -37 20 -7 35 33 16 37
15 37 -17z"/>
</g>
</svg>
