<?xml version="1.0" standalone="no"?>
<!DOCTYPE svg PUBLIC "-//W3C//DTD SVG 20010904//EN"
 "http://www.w3.org/TR/2001/REC-SVG-20010904/DTD/svg10.dtd">
<svg version="1.0" xmlns="http://www.w3.org/2000/svg"
 width="167.000000pt" height="258.000000pt" viewBox="0 0 167.000000 258.000000"
 preserveAspectRatio="xMidYMid meet">

<g transform="translate(0.000000,258.000000) scale(0.100000,-0.100000)"
fill="#000000" stroke="none">
<path fill="#673ab7" d="M542 2173 c-167 -80 -299 -149 -295 -153 4 -4 142 -72 306 -150 l298
-143 142 67 c78 37 218 104 310 149 l168 82 -308 148 c-169 81 -310 147 -313
147 -3 -1 -141 -67 -308 -147z m318 -148 c0 -135 -2 -245 -5 -245 -2 0 -20 8
-40 17 l-35 17 0 211 0 211 33 17 c17 8 35 16 40 16 4 1 7 -109 7 -244z m90
195 l40 -20 0 -178 0 -178 -35 -17 c-20 -9 -40 -17 -45 -17 -6 0 -10 83 -10
215 0 118 2 215 5 215 3 0 24 -9 45 -20z m-210 -195 c0 -102 -2 -185 -5 -185
-3 0 -21 7 -40 14 l-35 15 0 154 0 153 33 17 c17 8 35 16 40 16 4 1 7 -82 7
-184z m335 138 l35 -17 0 -121 0 -121 -35 -17 c-20 -9 -38 -17 -40 -17 -3 0
-5 70 -5 155 0 85 2 155 5 155 2 0 20 -8 40 -17z m-455 -143 l0 -131 -30 16
-30 16 0 104 c0 88 3 106 18 114 39 23 42 16 42 -119z m580 80 c40 -20 40 -21
40 -78 0 -57 -1 -59 -35 -75 -20 -9 -40 -17 -45 -17 -6 0 -10 41 -10 95 0 52
2 95 5 95 3 0 24 -9 45 -20z m-680 -80 l0 -80 -35 17 c-33 16 -35 19 -35 68 0
44 3 54 23 63 44 21 47 17 47 -68z m800 25 c17 -9 30 -18 30 -20 0 -5 -56 -35
-65 -35 -3 0 -5 16 -5 35 0 40 1 40 40 20z m-910 -25 l0 -31 -32 17 -32 16 25
14 c35 19 39 17 39 -16z"/>
<path fill="#673ab7" d="M547 1447 c-164 -79 -299 -147 -300 -150 -1 -4 135 -73 302 -153
l304 -146 131 63 c72 35 211 102 310 149 l178 86 -307 147 c-168 81 -309 147
-313 147 -4 0 -141 -65 -305 -143z m313 -152 c0 -135 -2 -245 -5 -245 -2 0
-20 8 -40 17 l-35 17 0 211 0 211 33 17 c17 8 35 16 40 16 4 1 7 -109 7 -244z
m95 198 l35 -17 -2 -180 -3 -181 -35 -17 c-19 -9 -38 -17 -42 -18 -5 0 -8 97
-8 215 0 132 4 215 10 215 5 0 25 -8 45 -17z m-215 -198 c0 -102 -2 -185 -5
-185 -2 0 -20 8 -40 17 l-35 17 0 153 0 153 33 14 c17 8 35 15 40 15 4 1 7
-82 7 -184z m335 138 l35 -17 0 -121 0 -121 -35 -17 c-20 -9 -38 -17 -40 -17
-3 0 -5 70 -5 155 0 85 2 155 5 155 2 0 20 -8 40 -17z m-455 -138 l0 -136 -30
16 -30 16 0 104 c0 104 0 104 28 119 15 8 28 15 30 16 1 0 2 -61 2 -135z m585
78 l36 -17 -3 -61 c-3 -58 -4 -61 -38 -77 -19 -9 -38 -17 -42 -18 -5 0 -8 43
-8 95 0 54 4 95 10 95 5 0 25 -8 45 -17z m-689 -151 c-3 -2 -19 1 -36 8 -28
12 -30 16 -30 64 0 49 2 53 33 68 l32 15 3 -75 c2 -41 1 -77 -2 -80z m-106 77
c0 -27 -3 -30 -22 -24 -38 12 -41 23 -12 39 16 8 30 15 32 16 1 0 2 -14 2 -31z
m915 14 l36 -17 -33 -18 c-45 -24 -48 -23 -48 17 0 19 2 35 5 35 2 0 20 -8 40
-17z"/>
<path fill="#673ab7" d="M542 733 c-166 -81 -299 -150 -295 -154 11 -10 594 -289 605 -289 10
0 597 279 610 289 6 5 -559 282 -602 295 -8 2 -151 -61 -318 -141z m314 -390
c-2 -2 -20 4 -40 13 l-36 18 0 211 0 212 38 15 37 14 3 -240 c1 -131 1 -241
-2 -243z m94 437 l40 -20 0 -178 0 -178 -35 -17 c-20 -9 -40 -17 -45 -17 -6 0
-10 83 -10 215 0 118 2 215 5 215 3 0 24 -9 45 -20z m-210 -200 l0 -190 -40
20 -40 20 0 153 0 153 33 17 c17 8 35 16 40 16 4 1 7 -85 7 -189z m335 143
l35 -17 0 -123 0 -123 -36 -15 c-20 -8 -38 -15 -40 -15 -2 0 -4 70 -4 155 0
85 2 155 5 155 2 0 20 -8 40 -17z m-455 -143 l0 -131 -30 16 -30 16 0 103 c0
97 1 104 23 114 12 6 25 11 30 11 4 1 7 -58 7 -129z m580 80 c40 -20 40 -21
40 -78 0 -57 -1 -59 -35 -75 -20 -9 -40 -17 -45 -17 -6 0 -10 41 -10 95 0 52
2 95 5 95 3 0 24 -9 45 -20z m-680 -80 l0 -80 -32 13 c-31 13 -33 17 -36 68
-3 50 0 57 20 67 45 21 48 17 48 -68z m810 21 l35 -19 -39 -16 c-21 -9 -40
-16 -42 -16 -2 0 -4 16 -4 35 0 40 2 41 50 16z m-920 -21 l0 -31 -32 17 -32
16 25 14 c35 19 39 17 39 -16z"/>
</g>
</svg>
