<?xml version="1.0" standalone="no"?>
<!DOCTYPE svg PUBLIC "-//W3C//DTD SVG 20010904//EN"
 "http://www.w3.org/TR/2001/REC-SVG-20010904/DTD/svg10.dtd">
<svg version="1.0" xmlns="http://www.w3.org/2000/svg"
 width="167.000000pt" height="258.000000pt" viewBox="0 0 167.000000 258.000000"
 preserveAspectRatio="xMidYMid meet">

<g transform="translate(0.000000,258.000000) scale(0.100000,-0.100000)"
fill="#000000" stroke="none">
<path fill="#f44336" d="M489 1931 c-108 -33 -199 -151 -199 -260 0 -105 61 -200 158 -248
l57 -28 345 0 345 0 57 28 c87 43 144 122 155 216 13 114 -64 240 -173 280
-51 20 -75 21 -387 20 -183 0 -344 -4 -358 -8z m149 -263 l2 -228 -45 0 -45 0
0 231 0 230 43 -3 42 -3 3 -227z m122 2 l0 -230 -45 0 -45 0 0 223 c0 123 3
227 7 230 3 4 24 7 45 7 l38 0 0 -230z m120 0 l0 -230 -40 0 -40 0 0 230 0
230 40 0 40 0 0 -230z m120 0 l0 -230 -40 0 -40 0 0 230 0 230 40 0 40 0 0
-230z m130 0 l0 -230 -45 0 -45 0 0 230 0 230 45 0 45 0 0 -230z m-624 -217
c-2 -3 -21 3 -40 12 l-36 17 2 187 3 186 35 17 35 18 3 -216 c1 -120 0 -219
-2 -221z m714 422 l30 -16 0 -194 c0 -107 -2 -195 -4 -195 -2 0 -20 -7 -40
-15 l-36 -15 0 225 c0 150 3 225 10 225 6 0 24 -7 40 -15z m121 -120 c34 -72
15 -193 -37 -235 -12 -11 -14 9 -14 151 1 151 2 162 16 144 9 -11 25 -38 35
-60z m-953 -157 l-3 -73 -22 45 c-30 61 -30 137 0 193 l22 42 3 -67 c2 -37 2
-100 0 -140z"/>
<path fill="#f44336" d="M460 1179 c-65 -29 -127 -94 -150 -157 -51 -135 6 -274 138 -339 l57
-28 345 0 345 0 57 28 c165 81 207 285 87 421 -81 92 -74 91 -479 94 -340 2
-357 1 -400 -19z m178 -251 l2 -228 -45 0 -45 0 0 231 0 230 43 -3 42 -3 3
-227z m122 2 l0 -230 -45 0 -45 0 0 223 c0 123 3 227 7 230 3 4 24 7 45 7 l38
0 0 -230z m120 0 l0 -230 -40 0 -40 0 0 230 0 230 40 0 40 0 0 -230z m120 0
l0 -230 -40 0 -40 0 0 230 0 230 40 0 40 0 0 -230z m130 0 l0 -230 -45 0 -45
0 0 230 0 230 45 0 45 0 0 -230z m-624 -217 c-2 -2 -20 4 -40 14 l-36 17 2
185 3 186 35 17 35 18 3 -216 c1 -120 1 -219 -2 -221z m714 422 l30 -16 0
-194 c0 -107 -2 -195 -4 -195 -2 0 -20 -7 -40 -15 l-36 -15 0 225 c0 150 3
225 10 225 6 0 24 -7 40 -15z m121 -120 c34 -72 15 -193 -37 -235 -12 -11 -14
9 -14 151 1 151 2 162 16 144 9 -11 25 -38 35 -60z m-953 -157 l-3 -73 -22 45
c-30 60 -30 135 0 196 l22 46 3 -71 c2 -39 2 -104 0 -143z"/>
</g>
</svg>
