<svg version="1.0" xmlns="http://www.w3.org/2000/svg"
 width="167.000000pt" height="258.000000pt" viewBox="0 0 167.000000 258.000000"
 preserveAspectRatio="xMidYMid meet">
    <g transform="translate(0.000000,258.000000) scale(0.100000,-0.100000)"
    fill="#000000" stroke="none">
    <path fill="#673ab7" d="M505 2276 c-63 -20 -100 -42 -134 -81 -44 -51 -63 -101 -64 -170 -1
    -111 64 -205 170 -245 50 -19 77 -20 372 -20 351 0 386 5 454 60 151 125 118
    360 -61 443 -45 21 -63 22 -372 24 -244 2 -335 -1 -365 -11z"/>
    <path fill="#673ab7" d="M487 1556 c-92 -33 -157 -106 -177 -198 -25 -118 38 -238 153 -289
    51 -24 56 -24 392 -24 327 0 342 1 387 22 179 82 212 318 61 442 -70 58 -94
    61 -452 61 -247 -1 -335 -4 -364 -14z"/>
    <path fill="#673ab7" d="M517 849 c-129 -31 -209 -128 -210 -254 -1 -102 52 -187 147 -238 40
    -21 52 -22 379 -25 380 -3 400 -1 476 64 63 55 85 104 86 194 0 115 -51 196
    -154 243 -44 20 -63 21 -366 24 -176 1 -337 -2 -358 -8z"/>
    </g>
</svg>
