<?xml version="1.0" standalone="no"?>
<!DOCTYPE svg PUBLIC "-//W3C//DTD SVG 20010904//EN"
 "http://www.w3.org/TR/2001/REC-SVG-20010904/DTD/svg10.dtd">
<svg version="1.0" xmlns="http://www.w3.org/2000/svg"
 width="167.000000pt" height="258.000000pt" viewBox="0 0 167.000000 258.000000"
 preserveAspectRatio="xMidYMid meet">

<g transform="translate(0.000000,258.000000) scale(0.100000,-0.100000)"
fill="#000000" stroke="none">
<path fill="#f44336" d="M498 2306 c-67 -18 -124 -60 -159 -114 -54 -85 -62 -156 -29 -245 25
-67 77 -122 144 -153 51 -24 54 -24 396 -24 341 0 346 0 395 24 219 102 213
399 -10 502 -36 17 -74 19 -365 21 -242 2 -337 -1 -372 -11z m140 -263 l-3
-228 -42 -3 -43 -3 0 230 0 231 45 0 45 0 -2 -227z m122 -4 l0 -230 -42 3 -43
3 -3 228 -2 227 45 0 45 0 0 -231z m120 1 l0 -230 -40 0 -40 0 0 230 0 230 40
0 40 0 0 -230z m120 0 l0 -230 -40 0 -40 0 0 230 0 230 40 0 40 0 0 -230z
m130 0 l0 -230 -45 0 -45 0 0 230 0 230 45 0 45 0 0 -230z m-620 0 l0 -220
-27 11 c-53 20 -53 19 -53 213 l0 182 33 17 c17 8 35 16 40 16 4 1 7 -98 7
-219z m715 208 l25 -11 0 -198 0 -197 -31 -11 c-18 -6 -36 -11 -40 -11 -5 0
-9 99 -9 220 0 239 -1 234 55 208z m114 -112 c36 -73 22 -172 -33 -241 -14
-18 -15 -7 -16 144 0 142 2 162 14 151 8 -6 24 -31 35 -54z m-949 -98 l0 -143
-22 34 c-33 52 -37 146 -8 206 12 25 24 45 26 45 2 0 4 -64 4 -142z"/>
<path fill="#f44336" d="M500 1561 c-54 -17 -110 -52 -144 -93 -95 -110 -84 -274 25 -372 82
-74 96 -76 469 -76 382 0 393 2 477 85 40 41 55 65 69 110 42 146 -41 296
-188 340 -42 12 -112 15 -367 14 -174 0 -327 -4 -341 -8z m140 -266 l0 -225
-45 0 -45 0 0 225 0 225 45 0 45 0 0 -225z m120 0 l0 -225 -45 0 -45 0 0 225
0 225 45 0 45 0 0 -225z m120 0 l0 -225 -40 0 -40 0 0 225 0 225 40 0 40 0 0
-225z m120 0 l0 -225 -40 0 -40 0 0 225 0 225 40 0 40 0 0 -225z m130 0 l0
-225 -45 0 -45 0 0 225 0 225 45 0 45 0 0 -225z m85 211 l35 -15 0 -196 0
-196 -35 -15 c-19 -7 -37 -14 -40 -14 -3 0 -5 101 -5 225 0 124 2 225 5 225 3
0 21 -7 40 -14z m-705 -216 l0 -220 -40 20 -40 20 0 185 0 184 28 15 c53 29
52 33 52 -204z m829 96 c36 -73 19 -192 -32 -235 -16 -12 -17 -1 -17 144 0
136 2 156 14 145 8 -6 24 -31 35 -54z m-951 -158 l-3 -73 -22 42 c-30 56 -30
132 0 193 l22 45 3 -67 c2 -37 2 -100 0 -140z"/>
<path fill="#f44336" d="M475 812 c-71 -23 -148 -102 -169 -172 -33 -110 -11 -196 69 -277 81
-80 98 -83 475 -83 378 0 394 3 476 85 41 41 56 65 70 110 41 143 -31 282
-174 335 -49 18 -77 20 -375 19 -271 0 -330 -3 -372 -17z m165 -257 l0 -225
-45 0 -45 0 0 225 0 225 45 0 45 0 0 -225z m120 0 l0 -225 -45 0 -45 0 0 225
0 225 45 0 45 0 0 -225z m120 0 l0 -225 -40 0 -40 0 0 225 0 225 40 0 40 0 0
-225z m120 0 l0 -225 -40 0 -40 0 0 225 0 225 40 0 40 0 0 -225z m130 0 l0
-225 -45 0 -45 0 0 225 0 225 45 0 45 0 0 -225z m85 211 l35 -15 0 -196 0
-196 -35 -15 c-19 -7 -37 -14 -40 -14 -3 0 -5 101 -5 225 0 124 2 225 5 225 3
0 21 -7 40 -14z m-705 -211 c0 -143 -3 -215 -10 -215 -6 0 -24 7 -40 15 l-30
16 0 184 0 184 28 15 c53 29 52 33 52 -199z m831 90 c33 -73 16 -192 -34 -234
-16 -12 -17 -1 -17 144 0 145 1 156 17 144 9 -8 24 -32 34 -54z m-953 -157
l-3 -73 -22 42 c-30 56 -30 132 0 193 l22 45 3 -67 c2 -37 2 -100 0 -140z"/>
</g>
</svg>
