<?xml version="1.0" standalone="no"?>
<!DOCTYPE svg PUBLIC "-//W3C//DTD SVG 20010904//EN"
 "http://www.w3.org/TR/2001/REC-SVG-20010904/DTD/svg10.dtd">
<svg version="1.0" xmlns="http://www.w3.org/2000/svg"
 width="167.000000pt" height="258.000000pt" viewBox="0 0 167.000000 258.000000"
 preserveAspectRatio="xMidYMid meet">

<g transform="translate(0.000000,258.000000) scale(0.100000,-0.100000)"
fill="#000000" stroke="none">
<path fill="#673ab7" d="M466 1914 c-71 -22 -140 -94 -162 -170 -30 -105 -3 -198 80 -271 73
-64 98 -68 456 -68 372 0 387 3 466 79 90 88 106 201 46 310 -31 56 -99 109
-160 126 -22 6 -168 10 -357 9 -254 0 -330 -3 -369 -15z"/>
<path fill="#673ab7" d="M475 1182 c-70 -24 -117 -63 -151 -124 -24 -44 -29 -64 -29 -123 0
-59 5 -79 30 -124 17 -30 48 -67 69 -83 76 -55 112 -59 468 -56 303 3 326 4
368 24 175 81 211 297 71 427 -78 73 -102 77 -465 77 -268 -1 -318 -3 -361
-18z"/>
</g>
</svg>
