<?xml version="1.0" standalone="no"?>
<!DOCTYPE svg PUBLIC "-//W3C//DTD SVG 20010904//EN"
 "http://www.w3.org/TR/2001/REC-SVG-20010904/DTD/svg10.dtd">
<svg version="1.0" xmlns="http://www.w3.org/2000/svg"
 width="167.000000pt" height="258.000000pt" viewBox="0 0 167.000000 258.000000"
 preserveAspectRatio="xMidYMid meet">

<g transform="translate(0.000000,258.000000) scale(0.100000,-0.100000)"
fill="#000000" stroke="none">
<path fill="#f44336" d="M1194 1854 c-140 -85 -201 -89 -369 -23 -103 41 -116 43 -210 44 -79
0 -108 -4 -139 -19 -96 -48 -158 -152 -164 -276 -5 -96 11 -155 53 -197 47
-47 84 -44 188 12 117 63 167 67 272 24 75 -32 87 -34 200 -34 105 0 127 3
172 24 61 27 136 103 164 166 48 109 44 226 -11 285 -39 42 -79 40 -156 -6z
m132 -93 c17 -91 -47 -227 -129 -275 -93 -55 -230 -55 -360 0 -107 46 -198 34
-333 -41 -34 -19 -69 -33 -76 -30 -31 12 -52 68 -52 140 0 57 5 82 27 128 71
144 189 167 408 82 167 -66 270 -59 414 28 55 34 60 35 77 20 10 -9 21 -32 24
-52z"/>
<path fill="#f44336" d="M1265 1243 c-11 -3 -55 -26 -99 -52 -71 -41 -88 -46 -150 -49 -63 -4
-82 0 -178 37 -131 50 -216 65 -288 51 -107 -20 -177 -84 -221 -199 -16 -44
-20 -73 -17 -136 8 -177 94 -237 224 -156 114 70 183 77 301 30 158 -64 336
-47 435 40 53 47 104 139 118 212 24 126 -42 242 -125 222z m41 -84 c30 -33
26 -139 -9 -205 -33 -65 -104 -128 -162 -144 -74 -21 -208 -9 -285 25 -110 49
-231 36 -344 -35 -54 -34 -76 -37 -99 -12 -62 70 -33 248 54 326 77 70 184 70
359 1 162 -64 257 -58 390 24 36 22 68 40 71 41 3 0 14 -9 25 -21z"/>
</g>
</svg>
