<?xml version="1.0" standalone="no"?>
<!DOCTYPE svg PUBLIC "-//W3C//DTD SVG 20010904//EN"
 "http://www.w3.org/TR/2001/REC-SVG-20010904/DTD/svg10.dtd">
<svg version="1.0" xmlns="http://www.w3.org/2000/svg"
 width="167.000000pt" height="258.000000pt" viewBox="0 0 167.000000 258.000000"
 preserveAspectRatio="xMidYMid meet">

<g transform="translate(0.000000,258.000000) scale(0.100000,-0.100000)"
fill="#000000" stroke="none">
<path fill="#673ab7" d="M1195 2174 c-125 -76 -206 -83 -337 -33 -117 46 -174 59 -253 59
-161 0 -270 -110 -282 -285 -7 -90 10 -150 52 -192 44 -44 80 -43 157 3 118
72 188 79 305 33 144 -58 315 -49 413 22 93 67 154 219 131 323 -25 111 -82
132 -186 70z m-541 -20 c14 -5 16 -29 16 -164 l0 -158 -40 -10 -40 -10 0 174
0 174 24 0 c13 0 31 -3 40 -6z m672 -29 c24 -58 14 -154 -21 -200 -13 -18 -14
-7 -15 108 0 133 9 156 36 92z m-776 -154 l0 -179 -36 -21 c-19 -12 -37 -21
-40 -21 -2 0 -4 83 -4 185 l0 184 28 15 c52 29 52 30 52 -163z m710 31 c0
-141 -1 -149 -22 -169 -49 -43 -48 -45 -48 124 l0 158 28 17 c15 10 30 18 35
18 4 0 7 -67 7 -148z m-495 124 l35 -15 0 -140 c0 -153 3 -147 -59 -135 l-31
7 0 148 c0 96 4 149 10 149 6 0 26 -7 45 -14z m119 -46 l26 -10 0 -145 c0 -80
-2 -145 -4 -145 -2 0 -20 7 -40 15 l-36 15 0 140 c0 151 0 151 54 130z m266
-144 c0 -151 0 -154 -22 -160 -13 -3 -33 -6 -46 -6 l-23 0 3 147 3 146 35 13
c19 7 38 13 43 13 4 1 7 -68 7 -153z m-720 -32 c0 -178 -5 -193 -44 -119 -30
58 -27 155 7 228 14 32 28 57 31 57 4 0 6 -75 6 -166z m600 11 l0 -145 -40 0
-40 0 0 145 0 145 40 0 40 0 0 -145z"/>
<path fill="#673ab7" d="M1240 1521 c-19 -10 -61 -33 -94 -51 -44 -25 -74 -34 -125 -38 -60
-4 -77 0 -176 37 -213 81 -327 77 -425 -15 -60 -56 -92 -127 -98 -219 -5 -83
9 -143 44 -184 43 -51 75 -50 188 9 95 50 102 51 165 47 41 -2 93 -15 136 -32
60 -24 84 -28 170 -29 81 0 111 4 157 22 73 29 133 89 172 172 51 109 39 239
-26 284 -29 21 -46 20 -88 -3z m98 -124 c4 -54 -18 -150 -39 -162 -5 -4 -9 48
-9 127 l0 132 22 -21 c15 -15 23 -38 26 -76z m-670 -78 l-3 -161 -37 -13 -38
-13 0 174 0 174 40 0 40 0 -2 -161z m567 -166 c-14 -13 -30 -23 -36 -23 -5 0
-9 64 -9 154 l0 154 33 21 32 20 3 -152 3 -152 -26 -22z m-685 140 l0 -178
-40 -23 -40 -23 2 188 3 187 25 13 c50 25 50 25 50 -164z m250 0 l0 -145 -22
6 c-13 3 -33 6 -45 6 -23 0 -23 1 -23 154 l0 155 45 -16 45 -15 0 -145z m86
111 c24 -6 24 -6 24 -150 0 -156 0 -157 -55 -132 l-25 11 0 145 c0 128 2 143
16 138 9 -3 27 -9 40 -12z m264 -148 l0 -153 -31 -7 c-62 -12 -59 -19 -59 143
l0 148 33 11 c59 19 57 25 57 -142z m-720 -32 c0 -150 -2 -165 -16 -153 -54
45 -64 169 -21 262 14 32 28 57 31 57 4 0 6 -75 6 -166z m600 10 l0 -144 -40
0 -40 0 0 148 0 148 40 -4 40 -4 0 -144z"/>
<path fill="#673ab7"  d="M1240 877 c-14 -7 -44 -25 -66 -40 -105 -66 -193 -71 -327 -17 -255
102 -406 72 -489 -98 -30 -60 -33 -75 -33 -157 0 -68 5 -99 19 -128 38 -77
103 -90 184 -38 113 72 194 82 303 38 169 -68 337 -53 440 40 66 59 119 172
119 253 0 46 -22 103 -50 132 -31 31 -61 35 -100 15z m86 -72 c24 -58 14 -154
-21 -200 -13 -18 -14 -7 -15 108 0 133 9 156 36 92z m-776 -157 l0 -183 -40
-22 -40 -21 0 188 0 188 38 15 c20 9 38 16 40 16 1 1 2 -81 2 -181z m120 23
l0 -159 -31 -11 c-18 -6 -36 -11 -40 -11 -5 0 -9 77 -9 170 l0 170 40 0 40 0
0 -159z m590 6 l0 -153 -30 -22 c-16 -12 -32 -22 -35 -22 -3 0 -5 69 -5 154
l0 154 28 21 c15 11 30 21 35 21 4 0 7 -69 7 -153z m-482 122 c21 -8 22 -12
22 -155 0 -129 -2 -145 -16 -140 -9 3 -29 6 -45 6 l-29 0 0 156 0 155 23 -7
c12 -4 32 -10 45 -15z m101 -40 l31 -11 0 -144 c0 -94 -4 -144 -10 -144 -6 0
-24 7 -40 15 l-30 16 0 139 c0 77 4 140 9 140 4 0 22 -5 40 -11z m264 -300
c-5 -4 -24 -9 -43 -11 l-35 -3 -3 147 -3 146 43 14 43 15 3 -150 c1 -83 -1
-154 -5 -158z m-713 120 c0 -172 -5 -186 -44 -120 -24 41 -25 147 -2 210 15
41 33 71 42 71 2 0 4 -72 4 -161z m583 151 c15 0 17 -14 17 -145 l0 -145 -24
0 c-56 0 -56 1 -56 157 l0 145 23 -6 c12 -3 30 -6 40 -6z"/>
</g>
</svg>
